<svg width="56" height="56" viewBox="0 0 56 56" fill="none" xmlns="http://www.w3.org/2000/svg">
<path fill-rule="evenodd" clip-rule="evenodd" d="M55.9848 6.05453V0.496216H50.4265L55.9848 6.05453ZM45.195 0.496216L55.9848 11.286V16.5178L39.9632 0.496216H45.195ZM34.7317 0.496216H29.5002L55.9848 26.9808V21.7493L34.7317 0.496216ZM55.9848 32.2123L24.2687 0.496216H19.0375L55.9848 37.4436V32.2123ZM55.9848 42.6751L13.806 0.496216H8.5742L55.9848 47.9068V42.6751ZM55.9848 53.1383L3.3427 0.496216H0.496338V2.88097L53.6 55.9847H55.9848V53.1383ZM48.3685 55.9847L0.496338 8.11247V13.3441L43.1369 55.9847H48.3685ZM37.9054 55.9847L0.496338 18.5756V23.8073L32.6737 55.9847H37.9054ZM27.4422 55.9847L0.496338 29.0388V34.2703L22.2107 55.9847H27.4422ZM16.9792 55.9847L0.496338 39.5018V44.7331L11.7479 55.9847H16.9792ZM6.51643 55.9847L0.496338 49.9646V55.9847H6.51643Z" fill="#FFE297"/>
<path d="M52.2215 33.2845L28.5624 8V47.191L52.2215 33.2845Z" fill="#8EE4DF"/>
<path d="M3.99995 33.2845L27.6591 8V47.191L3.99995 33.2845Z" fill="#D7C3FF"/>
<path d="M28.0206 8L51.6797 33.2845L28.0206 47.191M28.0206 8L4.00024 33.2845L28.0206 47.191M28.0206 8V47.191" stroke="black" stroke-width="1.84962"/>
</svg>
