<svg width="27" height="26" viewBox="0 0 27 26" fill="none" xmlns="http://www.w3.org/2000/svg">
<path d="M9.49996 1.13042C9.03421 5.73912 6.68217 14.9565 1 14.9565" stroke="black" stroke-width="2" stroke-linecap="round"/>
<path d="M9.50004 25C9.96579 19.9565 12.3178 9.86954 18 9.86954" stroke="black" stroke-width="2" stroke-linecap="round"/>
<path d="M9.49995 1C9.9657 3.95653 12.3177 9.86958 17.9999 9.86958" stroke="black" stroke-width="2" stroke-linecap="round"/>
<path d="M9.49996 25C9.03421 21.6956 6.68217 15.0869 1 15.0869" stroke="black" stroke-width="2" stroke-linecap="round"/>
<path d="M21.5 14.0617C21.2534 16.2397 20.0082 20.5959 17 20.5959" stroke="black" stroke-width="1.3" stroke-linecap="round"/>
<path d="M21.4999 25.3425C21.7465 22.9589 22.9917 18.1918 25.9999 18.1918" stroke="black" stroke-width="1.3" stroke-linecap="round"/>
<path d="M21.4999 14C21.7465 15.3973 22.9917 18.1918 25.9999 18.1918" stroke="black" stroke-width="1.3" stroke-linecap="round"/>
<path d="M21.5 25.3425C21.2534 23.7808 20.0082 20.6575 17 20.6575" stroke="black" stroke-width="1.3" stroke-linecap="round"/>
</svg>
