<svg width="72" height="37" viewBox="0 0 72 37" fill="none" xmlns="http://www.w3.org/2000/svg">
<path d="M1.72042 36.0991C-2.64058 28.0248 11.153 14.2811 14.1439 13.576C28.7838 6.56336 37.909 11.1014 37.7313 22.5075C37.6888 25.2404 34.3884 28.0553 31.8669 29.0139C27.878 30.5303 25.1144 29.0379 23.5984 25.8697C20.8445 20.1144 22.6564 9.89852 29.9237 5.44824C41.2965 -1.51612 53.2198 1.43284 61.1807 7.68472C62.7664 8.93004 72.4055 20.517 64.7442 16.5858C63.3537 15.8723 59.3177 13.5503 60.7722 14.1625C63.1837 15.1776 64.4715 15.8606 66.2942 17.7238C66.6561 18.0937 68.2062 20.3606 68.5847 18.6761C69.3596 15.227 70.3913 11.7931 71.0899 8.33906" stroke="#1C1C1C" stroke-width="1.5" stroke-linecap="round"/>
</svg>
