<svg width="25" height="25" viewBox="0 0 25 25" fill="none" xmlns="http://www.w3.org/2000/svg">
<path d="M11.6027 1.00103C10.5694 0.895068 8.13204 9.00113 7.4166 9.00113C6.70116 9.00113 1.21693 8.25941 1.00498 9.00113C0.793026 9.74286 7.4166 14.5111 7.4166 15.1999C7.4166 15.8886 5.87993 22.5112 6.33033 23.0146C6.78074 23.5179 11.0993 16.4714 11.6027 16.6039C12.1061 16.7363 18.6237 23.3854 19.0211 23.0146C19.4185 22.6437 15.4179 15.9416 15.4179 15.1999C15.4179 14.4582 22.5978 9.58393 23.0217 9.00113C23.4457 8.41834 16.4777 9.00113 15.4179 9.00113C14.3581 9.00113 12.636 1.10699 11.6027 1.00103Z" stroke="black" stroke-width="2" stroke-linecap="round"/>
</svg>
