<svg width="131" height="131" viewBox="0 0 131 131" fill="none" xmlns="http://www.w3.org/2000/svg">
<path fill-rule="evenodd" clip-rule="evenodd" d="M69.1666 29.9303L65.2363 26L61.3059 29.9303L69.1666 29.9303ZM57.6067 33.6296L72.8658 33.6296L76.5652 37.329L53.9073 37.329L57.6067 33.6296ZM50.2081 41.0282L46.5088 44.7274L83.9637 44.7274L80.2645 41.0282L50.2081 41.0282ZM87.6629 48.4267L42.8096 48.4267L39.1106 52.1257L91.362 52.1257L87.6629 48.4267ZM95.0612 55.8249L35.4113 55.8249L31.7119 59.5244L98.7606 59.5244L95.0612 55.8249ZM102.46 63.2236L28.0127 63.2236L26 65.2363L27.6863 66.9225L102.786 66.9225L104.473 65.2363L102.46 63.2236ZM99.087 70.6218L31.3855 70.6218L35.0848 74.3211L95.3877 74.3211L99.087 70.6218ZM91.6885 78.0203L38.784 78.0203L42.4834 81.7197L87.9891 81.7197L91.6885 78.0203ZM84.2899 85.4189H46.1827L49.8819 89.1182H80.5906L84.2899 85.4189ZM76.8914 92.8174H53.5811L57.2802 96.5164L73.1924 96.5164L76.8914 92.8174ZM69.4931 100.216L60.9794 100.216L65.2363 104.473L69.4931 100.216Z" fill="#f5f5f5"/>
<circle cx="65.5" cy="65.5" r="55" stroke="#333333" stroke-width="3" stroke-dasharray="5 5"/>
</svg>
