<svg width="125" height="125" viewBox="0 0 125 125" fill="none" xmlns="http://www.w3.org/2000/svg">
<path d="M0 0H125V125H0V0ZM114.766 95.1953C113.852 89.4766 110.125 84.6953 99.1211 80.2227C95.2969 78.4336 91.0234 77.1719 89.7617 74.2813C89.293 72.5703 89.2109 71.6367 89.5156 70.6172C90.3086 67.2383 94.2773 66.2422 97.4102 67.1797C99.4453 67.8086 101.316 69.3555 102.496 71.8594C107.887 68.3398 107.887 68.3398 111.633 66C110.23 63.8242 109.539 62.8672 108.582 61.9531C105.305 58.2695 100.934 56.3984 93.832 56.5625L90.1484 57.0313C86.6289 57.8867 83.2734 59.7578 81.2383 62.2617C75.3164 68.9766 77.0273 80.6953 84.207 85.5586C91.3086 90.8672 101.703 92.0273 103.047 97.0352C104.289 103.141 98.5117 105.094 92.793 104.379C88.582 103.441 86.2422 101.328 83.6563 97.4219L74.1328 102.895C75.2109 105.398 76.4727 106.477 78.3437 108.672C87.3984 117.809 110.062 117.34 114.129 103.441C114.27 102.973 115.371 99.7578 114.516 94.8555L114.766 95.1953ZM67.9727 57.4531H56.2734C56.2734 67.543 56.2109 77.5742 56.2109 87.6875C56.2109 94.0977 56.5352 99.9961 55.5 101.809C53.7695 105.391 49.3555 104.941 47.3398 104.313C45.2852 103.297 44.2266 101.891 43.0273 99.8555C42.6797 99.3047 42.4375 98.8398 42.3555 98.8398L32.8555 104.699C34.4414 107.977 36.7617 110.805 39.7539 112.594C44.2109 115.258 50.1914 116.113 56.457 114.711C60.5273 113.531 64.0469 111.109 65.875 107.367C68.5391 102.523 67.9688 96.5859 67.9492 89.9297C68.0117 79.2266 67.9492 68.5273 67.9492 57.7422L67.9727 57.4531Z" fill="#F0DC4E"/>
</svg>
