<svg width="125" height="112" viewBox="0 0 125 112" fill="none" xmlns="http://www.w3.org/2000/svg">
<path d="M62.5 44.4624C56.3555 44.4624 51.3516 49.4663 51.3516 55.6108C51.3516 61.7553 56.3555 66.7592 62.5 66.7592C68.6445 66.7592 73.6484 61.7553 73.6484 55.6108C73.6484 49.4663 68.6445 44.4624 62.5 44.4624ZM31.2891 77.767L28.8281 77.1577C10.5156 72.517 0 64.6655 0 55.5913C0 46.517 10.5195 38.6655 28.8281 34.0249L31.2891 33.4155L31.9805 35.8569C33.832 42.2436 36.2109 48.4702 39.082 54.4936L39.6094 55.5913L39.082 56.7084C36.2148 62.7084 33.832 68.935 31.9805 75.3452L31.2891 77.767ZM27.6914 39.7202C13.7734 43.6264 5.23047 49.6264 5.23047 55.5913C5.23047 61.5561 13.7773 67.5327 27.6914 71.4624C29.4023 66.0288 31.457 60.7397 33.8555 55.5913C31.4531 50.4428 29.3984 45.1538 27.6914 39.7202ZM93.7109 77.767L93.0195 75.3256C91.168 68.9389 88.7891 62.7124 85.918 56.7084L85.3906 55.5913L85.918 54.4741C88.7852 48.4741 91.168 42.2475 93.0195 35.8374L93.7109 33.4155L96.1719 34.0249C114.484 38.6655 125 46.517 125 55.5913C125 64.6655 114.48 72.517 96.1719 77.1577L93.7109 77.767ZM91.1445 55.5913C93.6484 61.0014 95.7227 66.3139 97.3086 71.4624C111.246 67.5366 119.77 61.5561 119.77 55.5913C119.77 49.6264 111.223 43.6499 97.3086 39.7202C95.5977 45.1303 93.543 50.4428 91.1445 55.5913ZM27.6484 39.7006L26.957 37.2592C21.8086 19.1108 23.375 6.09126 31.25 1.5522C38.9805 -2.90484 51.3711 2.3647 64.3711 15.7124L66.1406 17.5249L64.3711 19.3374C59.7539 24.1381 55.543 29.3061 51.7578 34.7983L51.0469 35.7944L49.8242 35.8959C43.1719 36.4233 36.5781 37.4819 30.1094 39.0717L27.6484 39.7006ZM37.5352 5.1772C36.1328 5.1772 34.8906 5.46235 33.8516 6.07173C28.6836 9.06392 27.7695 19.4389 31.3281 33.435C36.8828 32.1928 42.4961 31.3178 48.1758 30.81C51.4297 26.1694 55.0117 21.7358 58.8555 17.5639C50.7383 9.64985 43.0469 5.1772 37.5352 5.1772ZM87.4844 111.212C87.4648 111.212 87.4648 111.212 87.4844 111.212C80.0586 111.212 70.5156 105.638 60.6289 95.4663L58.8594 93.6538L60.6289 91.8413C65.2461 87.0405 69.457 81.8725 73.2422 76.3803L73.9336 75.3842L75.1562 75.2631C81.8086 74.7553 88.4023 73.6967 94.8906 72.0874L97.3516 71.478L98.043 73.9194C103.191 92.0678 101.625 105.068 93.75 109.603C91.8359 110.701 89.6797 111.255 87.4844 111.212ZM66.1406 93.6147C74.2578 101.529 81.9492 106.005 87.4609 106.005H87.4805C88.8633 106.005 90.1055 105.701 91.1445 105.111C96.3125 102.119 97.25 91.7436 93.668 77.7475C88.1133 78.9897 82.4766 79.8647 76.8203 80.353C73.5664 85.0131 69.9844 89.4233 66.1406 93.6147ZM97.3516 39.7006L94.8906 39.0717C88.4023 37.4858 81.8086 36.4272 75.1562 35.8959L73.9336 35.7944L73.2422 34.7983C69.457 29.3061 65.2461 24.1381 60.6289 19.3374L58.8594 17.5249L60.6289 15.7124C73.6289 2.3647 86.0195 -2.90484 93.75 1.5522C101.625 6.08735 103.191 19.1108 98.043 37.2592L97.3516 39.7006ZM76.8242 30.81C82.7656 31.3608 88.4219 32.2358 93.6719 33.435C97.2539 19.4389 96.3164 9.06001 91.1484 6.07173C86 3.10298 76.3164 7.65767 66.1445 17.5678C69.9883 21.7592 73.5508 26.1733 76.8242 30.8139V30.81ZM37.5352 111.212C35.3359 111.251 33.1602 110.705 31.25 109.607C23.375 105.072 21.8086 92.0678 26.957 73.9233L27.6484 71.4819L30.1094 72.0913C36.1328 73.6186 42.7656 74.6733 49.8242 75.267L51.0469 75.3881L51.7383 76.3842C55.5234 81.8764 59.7344 87.0444 64.3516 91.8452L66.1211 93.6577L64.3516 95.4702C54.4844 105.642 44.9414 111.216 37.5352 111.216V111.212ZM31.332 77.7475C27.75 91.7436 28.6875 102.123 33.8555 105.111C39.0039 108.04 48.668 103.525 58.8594 93.6147C55.0156 89.4233 51.4336 85.0092 48.1797 80.3491C42.5039 79.8608 36.8867 78.9897 31.332 77.7475ZM62.5 81.0209C58.207 81.0209 53.8125 80.8374 49.3984 80.4702L48.1758 80.3686L47.4648 79.353C44.9844 75.7709 42.6211 72.0913 40.4453 68.3061C38.2461 64.5209 36.2344 60.6577 34.3633 56.7084L33.8359 55.5913L34.3633 54.4741C36.2344 50.5288 38.25 46.6616 40.4453 42.8764C42.6016 39.1538 44.9609 35.4311 47.4648 31.8295L48.1758 30.8139L49.3984 30.7124C58.125 29.978 66.8945 29.978 75.6016 30.7124L76.8242 30.8139L77.5352 31.8295C82.5195 38.9897 86.9141 46.5795 90.6367 54.4741L91.1641 55.5913L90.6367 56.7084C86.9141 64.603 82.5391 72.1928 77.5352 79.353L76.8242 80.3686L75.6016 80.4702C71.207 80.8374 66.793 81.0209 62.5 81.0209ZM51.0664 75.3647C58.7578 75.9545 66.2422 75.9545 73.9531 75.3647C78.2461 69.0795 82.0703 62.4663 85.3867 55.5874C82.0898 48.7124 78.2656 42.0991 73.9336 35.81C66.3242 35.2202 58.6758 35.2202 51.0664 35.81C46.7344 42.0952 42.9062 48.7084 39.6133 55.5874C42.9297 62.4624 46.7539 69.0756 51.0664 75.3647Z" fill="hsl(177, 61%, 73%)"/>
</svg>
