<svg width="28" height="28" viewBox="0 0 28 28" fill="none" xmlns="http://www.w3.org/2000/svg">
<path d="M14.2891 14.2891C14.6608 10.5466 13.4132 6.67362 10.5463 3.80675C7.67945 0.939889 3.8065 -0.307699 0.0639874 0.0639874C-0.307699 3.8065 0.939889 7.67945 3.80675 10.5463C6.67362 13.4132 10.5466 14.6608 14.2891 14.2891Z" fill="#8EE4DF"/>
<path d="M13.711 14.2891C13.3393 10.5466 14.5869 6.67362 17.4537 3.80675C20.3206 0.939889 24.1935 -0.307699 27.9361 0.0639874C28.3077 3.8065 27.0602 7.67945 24.1933 10.5463C21.3264 13.4132 17.4535 14.6608 13.711 14.2891Z" fill="#F5FF86"/>
<path d="M14.2891 13.5505C14.6608 17.293 13.4132 21.166 10.5463 24.0328C7.67945 26.8997 3.8065 28.1473 0.0639874 27.7756C-0.307699 24.0331 0.939889 20.1601 3.80675 17.2933C6.67362 14.4264 10.5466 13.1788 14.2891 13.5505Z" fill="#B0D5F7"/>
<path d="M13.711 13.5505C13.3393 17.293 14.5869 21.166 17.4537 24.0328C20.3206 26.8997 24.1935 28.1473 27.9361 27.7756C28.3077 24.0331 27.0602 20.1601 24.1933 17.2933C21.3264 14.4264 17.4535 13.1788 13.711 13.5505Z" fill="#FFE297"/>
</svg>
