<svg width="132" height="91" viewBox="0 0 132 91" fill="none" xmlns="http://www.w3.org/2000/svg">
<path d="M1.81359 89.2204C1.81359 89.2204 5.61914 75.2227 19.6506 64.531C33.9124 53.6637 58.393 46.0818 62.4847 56.7142C64.6858 62.4338 62.3619 68.5856 54.0234 73.6011C45.7128 78.5998 38.2402 78.3273 33.5221 74.2527C23.4208 65.529 40.674 43.6682 58.4224 32.8926C76.2065 22.0953 104.109 16.6472 107.11 29.6915C108.513 35.7925 105.568 42.5948 97.1566 47.4817C88.9113 52.2719 81.1745 52.2356 76.6553 48.1332C67.0135 39.3808 82.3691 17.0104 100.313 7.52585C112.029 1.33301 121.7 0.0304284 130.471 3.46404" stroke="black" stroke-width="1.8" stroke-linecap="round"/>
</svg>
